# xmcd CD database file
#
# Track frame offsets:
#	150
#	18481
#	41309
#	61936
#	83792
#	104478
#	117601
#	137785
#	156452
#	175177
#	199920
#	223956
#	248197
#	270194
#	290560
#	309742
#	322512
#
# Disc length: 4647 seconds
#
# Revision: 4
# Processed by: cddbd v1.5.2PL0 Copyright (c) Steve Scherf et al.
# Submitted via: CDex 1.51
#
DISCID=f8122511
DTITLE=Various Artist - The Colour of Merengue  [CD 1-3]
DYEAR=2011
DGENRE=Merengue
TTITLE0=Eduardo Alfaro - Reina Mia
TTITLE1=Gabrio Huerta - Nuestro Cancion
TTITLE2=Dario Diamonte - La Ciguapa
TTITLE3=Ricardo Reyes - El Tiburón
TTITLE4=Otelo Mendoza - La Tosferina
TTITLE5=Conchita Moreno - Angel Para Una Tambora
TTITLE6=Marcos Macias - Tal Para Cual
TTITLE7=Andres Garcia - Tal Para Cual
TTITLE8=Cesar Gonzales - Den Le Yuca
TTITLE9=Guillermo Llamas - No Podras
TTITLE10=Martinez Madrigal - Jovinita
TTITLE11=Compagnia Pacheco - Carnaval
TTITLE12=Fernando Galarza - El Mujeron
TTITLE13=Gonzalo Guzman - Solo Tu
TTITLE14=Pedro Mercado - Morena Ven
TTITLE15=Duardo Almaraz - Vecina
TTITLE16=Alberto Gallardo - Tu Sonrisa
EXTD=YEAR: 2011
EXTT0=
EXTT1=
EXTT2=
EXTT3=
EXTT4=
EXTT5=
EXTT6=
EXTT7=
EXTT8=
EXTT9=
EXTT10=
EXTT11=
EXTT12=
EXTT13=
EXTT14=
EXTT15=
EXTT16=
PLAYORDER=
